<?xml version="1.0" encoding="utf-8"?>
<!-- Generator: Adobe Illustrator 19.0.0, SVG Export Plug-In . SVG Version: 6.00 Build 0)  -->
<!DOCTYPE svg PUBLIC "-//W3C//DTD SVG 1.1//EN" "http://www.w3.org/Graphics/SVG/1.1/DTD/svg11.dtd">
<svg version="1.1" id="Layer_1" xmlns="http://www.w3.org/2000/svg" xmlns:xlink="http://www.w3.org/1999/xlink" x="0px" y="0px"
	 viewBox="0 0 290.7 67" style="enable-background:new 0 0 290.7 67;" xml:space="preserve">
<style type="text/css">
	.st0{fill:#FFFFFF;}
	.st1{fill:#E49B25;}
	.st2{opacity:0.7;fill:#E49B25;}
	.st3{opacity:0.7;fill:#4DC8ED;}
	.st4{opacity:0.7;fill:#7EAA40;}
	.st5{fill:#7EAA40;}
	.st6{fill:#4DC8ED;}
	.st7{fill:#CB473F;}
</style>
<g>
	<path d="M112.7,64.6c-7,1.1-12-3.1-12.5-10.3c-0.3-4.1,0.5-8.1,1.3-12c0.3-1.6,0.3-3.2,0.1-4.8c-0.2-1.6-1.3-2.2-2.9-2.1
		c-2.4,0.1-4.1,1.3-5.6,3.1c-2.1,2.5-3.1,5.5-3.7,8.7c-1.1,5.3-1.1,10.6,0.4,15.9c0.1,0.5,0.3,0.9,0.5,1.5c-6.1,0.2-10-3-12.9-8
		c-0.5,0.4-0.9,0.8-1.2,1.1c-3.2,2.9-6.8,5.3-11.1,6.4c-2.7,0.7-5.5,0.7-8.3,0.5c-1.9-0.2-3.2-1.3-4-3c-1.2-2.4-1.3-5-0.7-7.6
		c1-4.5,2.2-9,3.2-13.6c0.5-2.2,0.7-4.4,1-6.6c-2.3-0.6-4.1,0.1-5.3,1.8c-0.6,0.8-1,1.7-1.5,2.6C46,44.9,41.7,51.3,36.6,57
		c-2.2,2.5-4.7,4.7-7.6,6.3c-1.3,0.7-2.7,1.3-4.1,1.7c-2.5,0.7-4.6-0.1-6.3-2.2c-1.8-2.3-2.7-4.9-3.5-7.7c-1.5-5.5-3-11-4.6-16.5
		c-0.3-1.2-0.8-2.3-1.4-3.4c-0.7-1.3-1.5-1.6-2.9-1.3c-1,0.2-2,0.6-3,0.8c-1.4,0.3-3-0.8-3.3-2.1c0-0.2,0.1-0.4,0.3-0.6
		c3.4-2.8,6.7-5.7,10.1-8.4c1.4-1.1,3-1.9,4.8-2.2c2-0.4,3.6,0.2,4.9,1.9c1.6,2.1,2.2,4.5,2.5,6.9c0.6,3.8,1.1,7.6,1.6,11.3
		c0.3,2.1,0.9,4.1,2.2,5.8c1.8,2.2,3.8,2.4,5.4,0.1c2.5-3.5,4.9-7.2,4.8-11.8c0-2.5-1.3-3.8-3.8-3.9c-0.9,0-1.7,0-2.7,0
		c0.1-0.4,0.2-0.8,0.4-1.2c2.1-4.9,5.8-8.3,10.8-10.2c2.3-0.9,4.7-0.8,7.1-0.1c3.1,1,4.5,3.4,4,6.8c0,0.3-0.1,0.6-0.2,1.1
		c0.6-0.4,1-0.7,1.4-1.1c1.5-1.3,2.9-2.7,4.4-3.9c1.6-1.4,3.5-2.2,5.6-2.2c3.5,0,6,2.9,5.5,6.4c-0.9,6-1.9,12-2.7,18
		c-0.2,1.8-0.1,3.7,0.3,5.5c0.4,2.3,1.9,2.9,4,2.1c2.9-1.1,5-3,5.7-6.1c1.1-4.3,1.3-8.7,1.7-13.3c-1.1,0.2-2,0.4-3,0.6
		c-0.9,0.1-1.8,0.3-2.7,0.3c-0.6,0-1.2-0.3-1.8-0.5c-0.7-0.3-0.8-0.8-0.2-1.5c3.1-3.8,6.6-7,10.6-9.8c0.2-0.1,0.4-0.3,0.6-0.4
		c3.4-2,6-1.2,7.6,2.5c0.6,1.5,0.8,3.1,1.2,4.6c0.1,0.4,0.2,0.9,0.3,1.5c0.4-0.3,0.6-0.5,0.9-0.7c2-1.5,3.8-3.2,5.9-4.6
		c4.3-3,9.2-3.7,14.3-2.7c3.1,0.6,4.5,2.3,4.5,5.4c0,1.1,0,2.3,0,3.4c0.1,0,0.2,0.1,0.3,0.1c0.5-0.4,1-0.8,1.5-1.2
		c2-1.6,4-3.4,6.1-4.8c2.8-1.9,6-2.9,9.4-3.3c4.2-0.4,7.4,2,8.2,6.2c0.5,2.5-0.1,5-0.5,7.4c-0.6,3.7-1.4,7.4-2,11.1
		c-0.3,1.9-0.6,3.8,0.1,5.7c0.9,2.4,3.8,2.9,5.4,0.9c0.2-0.2,0.1-0.6,0-0.9c-0.9-5-0.6-9.9,1.5-14.6c2-4.5,5.1-8.1,9.1-11
		c6-4.3,12.7-6.8,20.2-6.5c1.7,0.1,3.5,0.5,5,1.1c5.1,2,7.4,7.7,5.2,12.9c-1.2,3-3.3,5.3-5.7,7.3c-5.1,4.4-11,7.5-17.2,10.2
		c-0.3,0.1-0.6,0.3-0.9,0.4c-0.1,0-0.1,0.1-0.2,0.2c1.8,1.3,3.8,1.7,5.9,1.8c6.2,0.2,12.1-1.1,17.6-3.8c0.8-0.4,1.2-0.8,1.3-1.8
		c0.2-3.4,0.8-6.7,1.9-10c3.1-9.2,13.1-16.9,22.5-17.6c2.9-0.2,5.9-0.3,8.7,0.3c5.6,1.2,8.8,4.9,10.3,10.2
		c2.2,8.1,0.4,15.5-4.2,22.4c-4.2,6.2-10.2,9.6-17.6,10.7c-3.2,0.5-6.3,0.6-9.4-0.1c-4.3-0.9-7.9-3-10.1-6.9
		c-0.3-0.6-0.7-0.7-1.3-0.4c-1.8,0.8-3.6,1.6-5.3,2.5c-6.6,3.2-13.6,4.9-21,4.3c-4.8-0.4-9.1-2.1-12.8-5.1c-0.8-0.6-1.3-0.7-2.3-0.2
		c-4,2.2-8.1,4.2-12.6,5.1c-1.5,0.3-3.2,0.4-4.7,0.3c-2.5-0.1-4-1.8-4.4-4.3c-0.4-3,0.2-6,0.7-9c0.6-3.4,1.3-6.9,1.7-10.3
		c0.2-1.3,0-2.6,0-4c0-0.7-0.4-1.2-1.1-1.4c-1.3-0.4-2.6-0.5-3.9,0.2c-2.6,1.4-4.4,3.5-5.7,6.1c-1.7,3.4-2.7,7-3,10.8
		c-0.3,3.4-0.3,6.9-0.4,10.4C112.7,63.5,112.7,64,112.7,64.6z M200.7,48.1c-0.1,0-0.2,0-0.2,0.1c0.4,1.7,0.5,3.4,1.1,5
		c0.8,2.3,2.7,3.1,5,2.6c2.4-0.5,4.4-1.8,6.1-3.6c2.9-3.1,4.6-6.9,5.4-11c0.6-2.9,0.2-5.6-1.5-8.1c-1.6-2.3-3.9-3.1-6.4-1.9
		c-1.4,0.6-2.7,1.5-3.7,2.6C202.9,37.8,200.7,42.6,200.7,48.1z M158.8,48.8c0.2,0,0.3-0.1,0.4-0.1c4.3-1.8,8.1-4.4,11.1-8
		c1.2-1.5,2.3-3,2.7-4.9c0.7-2.9-1.1-4.8-4-4.4c-0.5,0.1-1,0.2-1.4,0.4c-4.7,2.5-8.2,6.1-9.6,11.3C157.6,45,157.8,47,158.8,48.8z"/>
	<path d="M63.7,13.2c-3.7,0-6-2.9-5.1-6.6c1-3.9,4.9-6.8,8.9-6.6c3.4,0.2,5.6,3,4.8,6.3C71.5,10.2,67.7,13.2,63.7,13.2z"/>
	<path class="st0" d="M200.7,48.1c0-5.6,2.1-10.3,5.8-14.4c1-1.1,2.3-2,3.7-2.6c2.5-1.2,4.9-0.4,6.4,1.9c1.7,2.5,2.1,5.3,1.5,8.1
		c-0.8,4.2-2.6,7.9-5.4,11c-1.6,1.8-3.6,3.1-6.1,3.6c-2.4,0.5-4.2-0.4-5-2.6c-0.6-1.6-0.7-3.3-1.1-5
		C200.6,48.2,200.7,48.1,200.7,48.1z"/>
	<path class="st1" d="M264.2,54.2c-6.7,0-12.5-0.8-16.8-2.3c-2.8-1-5.2-2.2-6.9-3.7c-1.8-1.6-2.8-3.2-2.8-4.9c0-3.1,3.4-6.2,9.2-8.2
		c4.7-1.6,10.9-2.6,17.3-2.6c6.3,0,12.4,0.9,17.1,2.5c2.7,0.9,5.1,2.2,6.7,3.5c1.8,1.5,2.7,3.1,2.7,4.7c0,3.3-3.8,6.6-10,8.6
		C276.3,53.4,270.4,54.2,264.2,54.2z M264.2,34.8c-6.1,0-12.1,0.9-16.6,2.4c-3.8,1.3-7.7,3.7-7.7,6.1c0,0.9,0.7,2.1,2,3.2
		c1.5,1.3,3.6,2.4,6.2,3.3c4.1,1.4,9.7,2.2,16.1,2.2c6,0,11.6-0.8,15.8-2.1c5.8-1.9,8.5-4.7,8.5-6.5c0-0.9-0.7-2-1.9-3
		c-1.4-1.2-3.5-2.3-6-3.1C276.1,35.7,270.2,34.8,264.2,34.8z"/>
	<ellipse class="st2" cx="264" cy="43.2" rx="25.1" ry="9.4"/>
	
		<ellipse transform="matrix(0.4836 0.8753 -0.8753 0.4836 174.294 -208.9069)" class="st3" cx="264.2" cy="43.3" rx="25.1" ry="9.4"/>
	
		<ellipse transform="matrix(-0.5172 0.8559 -0.8559 -0.5172 437.4874 -160.3887)" class="st4" cx="264" cy="43.2" rx="25.1" ry="9.4"/>
	<path class="st5" d="M253.4,67c-1,0-1.8-0.2-2.5-0.6c-2.7-1.6-3.7-6.1-2.5-12.1c0.9-4.9,3.2-10.7,6.4-16.3v0
		c3.2-5.5,7-10.3,10.7-13.6c2.2-1.9,4.4-3.3,6.4-4c2.2-0.8,4.1-0.8,5.5,0c2.8,1.6,3.8,6.6,2.4,13c-0.9,4.5-3.2,10-6.3,15.4
		c-3.3,5.8-6.9,10.4-10.4,13.4c-2.2,2-4.6,3.4-6.7,4.1C255.4,66.8,254.3,67,253.4,67z M275,22.1c-0.6,0-1.4,0.2-2.2,0.5
		c-1.7,0.6-3.7,1.9-5.7,3.6c-3.6,3.1-7.2,7.7-10.2,13l0,0c-3.1,5.3-5.3,11-6.2,15.6c-0.8,4-0.6,8.5,1.4,9.7c1.5,0.9,5.2,0,9.7-3.9
		c3.3-2.9,6.7-7.3,9.9-12.9c3-5.2,5.1-10.4,6-14.7c0.6-2.7,0.7-5.2,0.4-7.2c-0.3-1.7-0.9-2.9-1.7-3.4
		C275.9,22.2,275.5,22.1,275,22.1z"/>
	<path class="st6" d="M274.9,67c-2.6,0-5.8-1.6-9.2-4.5c-3.8-3.3-7.7-8.1-10.9-13.7v0c-3.2-5.5-5.4-11.2-6.4-16
		c-0.6-2.9-0.7-5.5-0.3-7.6c0.4-2.3,1.3-3.9,2.7-4.7c2.8-1.6,7.6,0,12.5,4.4c3.5,3.1,7.1,7.7,10.2,13.1c3.3,5.8,5.6,11.2,6.5,15.7
		c0.6,2.9,0.7,5.6,0.3,7.9c-0.4,2.3-1.4,4-2.8,4.8C276.7,66.8,275.9,67,274.9,67z M256.8,47.7c3.1,5.3,6.9,10.1,10.4,13.1
		c3.1,2.6,7.1,4.8,9.1,3.6c1.5-0.9,2.6-4.5,1.5-10.3c-0.8-4.3-3-9.5-6.2-15c-3-5.2-6.5-9.7-9.8-12.6c-2.1-1.9-4.2-3.2-6.1-3.9
		c-1.6-0.6-2.9-0.7-3.8-0.2c-0.8,0.4-1.3,1.6-1.6,3.1c-0.3,1.8-0.2,4.2,0.3,6.8C251.5,37,253.7,42.4,256.8,47.7L256.8,47.7z"/>
	<path class="st0" d="M158.8,48.8c-1-1.8-1.2-3.7-0.7-5.7c1.4-5.3,4.9-8.9,9.6-11.3c0.4-0.2,0.9-0.3,1.4-0.4c2.9-0.4,4.7,1.5,4,4.4
		c-0.5,1.9-1.5,3.5-2.7,4.9c-3,3.6-6.8,6.2-11.1,8C159.2,48.7,159,48.7,158.8,48.8z"/>
	<circle class="st7" cx="264.2" cy="43.3" r="4.7"/>
</g>
</svg>
